<svg width="18" height="18" viewBox="0 0 18 18" fill="none" xmlns="http://www.w3.org/2000/svg">
<path d="M2.62501 13.875V4.50001H5.25001C5.34946 4.50001 5.44485 4.4605 5.51517 4.39017C5.5855 4.31985 5.62501 4.22446 5.62501 4.12501V1.50001H12.75C12.8495 1.50001 12.9448 1.53952 13.0152 1.60984C13.0855 1.68017 13.125 1.77555 13.125 1.87501V6.75001H13.875V1.87501C13.875 1.57664 13.7565 1.29049 13.5455 1.07951C13.3345 0.868533 13.0484 0.750006 12.75 0.750006H5.25001C5.20065 0.749721 5.15173 0.75918 5.10604 0.777842C5.06035 0.796504 5.0188 0.824001 4.98376 0.858756L1.98376 3.85876C1.949 3.8938 1.9215 3.93535 1.90284 3.98104C1.88418 4.02673 1.87472 4.07565 1.87501 4.12501V13.875C1.87501 14.1734 1.99353 14.4595 2.20451 14.6705C2.41549 14.8815 2.70164 15 3.00001 15H8.22751V14.25H3.00001C2.90055 14.25 2.80517 14.2105 2.73484 14.1402C2.66452 14.0698 2.62501 13.9745 2.62501 13.875ZM3.15376 3.75001L4.87501 2.02876V3.75001H3.15376ZM4.12501 5.62501H8.25001V6.37501H4.12501V5.62501ZM6.37501 3.75001H8.25001V4.50001H6.37501V3.75001ZM4.12501 7.50001H8.25001V8.25001H4.12501V7.50001ZM4.12501 9.37501H8.25001V10.125H4.12501V9.37501ZM4.12501 11.25H8.25001V12H4.12501V11.25ZM15 7.50001H10.5C10.2016 7.50001 9.91549 7.61853 9.70451 7.82951C9.49353 8.04049 9.37501 8.32664 9.37501 8.62501V16.125C9.37501 16.4234 9.49353 16.7095 9.70451 16.9205C9.91549 17.1315 10.2016 17.25 10.5 17.25H15C15.2984 17.25 15.5845 17.1315 15.7955 16.9205C16.0065 16.7095 16.125 16.4234 16.125 16.125V8.62501C16.125 8.32664 16.0065 8.04049 15.7955 7.82951C15.5845 7.61853 15.2984 7.50001 15 7.50001ZM15.375 16.125C15.375 16.2245 15.3355 16.3198 15.2652 16.3902C15.1948 16.4605 15.0995 16.5 15 16.5H10.5C10.4005 16.5 10.3052 16.4605 10.2348 16.3902C10.1645 16.3198 10.125 16.2245 10.125 16.125V8.62501C10.125 8.52555 10.1645 8.43017 10.2348 8.35984C10.3052 8.28952 10.4005 8.25001 10.5 8.25001H15C15.0995 8.25001 15.1948 8.28952 15.2652 8.35984C15.3355 8.43017 15.375 8.52555 15.375 8.62501V16.125ZM14.25 9.00001H11.25C11.1505 9.00001 11.0552 9.03951 10.9848 9.10984C10.9145 9.18017 10.875 9.27555 10.875 9.37501V10.875C10.875 10.9745 10.9145 11.0698 10.9848 11.1402C11.0552 11.2105 11.1505 11.25 11.25 11.25H14.25C14.3495 11.25 14.4448 11.2105 14.5152 11.1402C14.5855 11.0698 14.625 10.9745 14.625 10.875V9.37501C14.625 9.27555 14.5855 9.18017 14.5152 9.10984C14.4448 9.03951 14.3495 9.00001 14.25 9.00001ZM13.875 10.5H11.625V9.75001H13.875V10.5ZM10.875 12H12.375V12.75H10.875V12ZM13.125 12H14.625V12.75H13.125V12ZM10.875 13.5H12.375V14.25H10.875V13.5ZM13.125 13.5H14.625V14.25H13.125V13.5ZM10.875 15H12.375V15.75H10.875V15ZM13.125 15H14.625V15.75H13.125V15ZM10.125 3.75001V4.12501H11.25C11.3495 4.12501 11.4448 4.16452 11.5152 4.23484C11.5855 4.30517 11.625 4.40055 11.625 4.50001V5.62501C11.625 5.72446 11.5855 5.81985 11.5152 5.89017C11.4448 5.9605 11.3495 6.00001 11.25 6.00001H10.875V6.37501H10.125V6.00001H9.37501V5.25001H10.875V4.87501H9.75001C9.65055 4.87501 9.55517 4.8355 9.48484 4.76517C9.41452 4.69485 9.37501 4.59946 9.37501 4.50001V3.37501C9.37501 3.27555 9.41452 3.18017 9.48484 3.10984C9.55517 3.03952 9.65055 3.00001 9.75001 3.00001H10.125V2.62501H10.875V3.00001H11.625V3.75001H10.125Z" fill="#5C3EF4"/>
</svg>
