<svg width="18" height="18" viewBox="0 0 18 18" fill="none" xmlns="http://www.w3.org/2000/svg">
<path d="M7.79143 9.57792C7.94143 9.89523 7.80257 10.2735 7.48114 10.4215C7.39286 10.4622 7.30029 10.4808 7.21029 10.4808C6.96771 10.4808 6.73629 10.3454 6.62657 10.1144C6.07629 8.95177 5.78657 7.54208 5.78657 6.03846C5.78657 5.68815 6.07457 5.40385 6.42943 5.40385C6.78429 5.40385 7.07229 5.68815 7.07229 6.03846C7.07229 7.33985 7.32686 8.59638 7.79143 9.57792ZM11.5714 5.40385C11.2166 5.40385 10.9286 5.68815 10.9286 6.03846C10.9286 7.33985 10.6731 8.59638 10.2086 9.57792C10.0586 9.89523 10.1974 10.2735 10.5189 10.4215C10.6071 10.4622 10.6997 10.4808 10.7897 10.4808C11.0323 10.4808 11.2637 10.3454 11.3734 10.1144C11.9237 8.95177 12.2134 7.54208 12.2134 6.03846C12.2134 5.68815 11.9254 5.40385 11.5706 5.40385H11.5714ZM16.5 6.46154C16.5 7.40923 16.1554 8.32731 15.5289 9.04654C15.1894 9.43577 14.7857 10.0628 14.7857 10.8336V14.9231C14.7857 16.2067 13.7289 17.25 12.4286 17.25H5.57143C4.27114 17.25 3.21429 16.2067 3.21429 14.9231V10.8336C3.21429 10.0628 2.80971 9.43662 2.47114 9.04654C1.84543 8.32646 1.5 7.40838 1.5 6.46154C1.5 4.45869 2.96143 2.80615 4.94486 2.50662C5.86457 1.40154 7.35686 0.75 9 0.75C10.6431 0.75 12.1354 1.40154 13.0551 2.50662C15.0377 2.80615 16.5 4.45869 16.5 6.46154ZM13.5 14.9231V13.8654H4.5V14.9231C4.5 15.5061 4.98086 15.9808 5.57143 15.9808H12.4286C13.0191 15.9808 13.5 15.5061 13.5 14.9231ZM15.2143 6.46154C15.2143 5.02815 14.1154 3.85623 12.6583 3.73777C12.4689 3.72169 12.2974 3.62523 12.1869 3.47377C11.5406 2.57685 10.3191 2.02008 9 2.02008C7.68086 2.02008 6.45943 2.57685 5.81314 3.47377C5.70257 3.62608 5.53114 3.72254 5.34171 3.73777C3.88457 3.85708 2.78571 5.02815 2.78571 6.46154C2.78571 7.11477 3.01457 7.72315 3.44657 8.21985C4.13571 9.01269 4.5 9.91638 4.5 10.8336V12.5962H13.5V10.8336C13.5 9.91638 13.8643 9.01185 14.5534 8.21985C14.9863 7.72315 15.2143 7.11477 15.2143 6.46154Z" fill="#5C3EF4"/>
</svg>
