<svg width="18" height="18" viewBox="0 0 18 18" fill="none" xmlns="http://www.w3.org/2000/svg">
<path d="M15.75 2.8125H2.25C1.80245 2.8125 1.37322 2.99029 1.05676 3.30676C0.74029 3.62322 0.5625 4.05245 0.5625 4.5V13.5C0.5625 13.9476 0.74029 14.3768 1.05676 14.6932C1.37322 15.0097 1.80245 15.1875 2.25 15.1875H15.75C16.1976 15.1875 16.6268 15.0097 16.9432 14.6932C17.2597 14.3768 17.4375 13.9476 17.4375 13.5V4.5C17.4375 4.05245 17.2597 3.62322 16.9432 3.30676C16.6268 2.99029 16.1976 2.8125 15.75 2.8125ZM2.25 3.9375H15.75C15.8992 3.9375 16.0423 3.99676 16.1477 4.10225C16.2532 4.20774 16.3125 4.35082 16.3125 4.5V6.1875H1.6875V4.5C1.6875 4.35082 1.74676 4.20774 1.85225 4.10225C1.95774 3.99676 2.10082 3.9375 2.25 3.9375ZM15.75 14.0625H2.25C2.10082 14.0625 1.95774 14.0032 1.85225 13.8977C1.74676 13.7923 1.6875 13.6492 1.6875 13.5V7.3125H16.3125V13.5C16.3125 13.6492 16.2532 13.7923 16.1477 13.8977C16.0423 14.0032 15.8992 14.0625 15.75 14.0625Z" fill="#5C3EF4"/>
<path d="M14.625 11.8125H12.375C12.2258 11.8125 12.0827 11.8718 11.9773 11.9773C11.8718 12.0827 11.8125 12.2258 11.8125 12.375C11.8125 12.5242 11.8718 12.6673 11.9773 12.7727C12.0827 12.8782 12.2258 12.9375 12.375 12.9375H14.625C14.7742 12.9375 14.9173 12.8782 15.0227 12.7727C15.1282 12.6673 15.1875 12.5242 15.1875 12.375C15.1875 12.2258 15.1282 12.0827 15.0227 11.9773C14.9173 11.8718 14.7742 11.8125 14.625 11.8125Z" fill="#5C3EF4"/>
</svg>
