<svg width="18" height="18" viewBox="0 0 18 18" fill="none" xmlns="http://www.w3.org/2000/svg">
<path fill-rule="evenodd" clip-rule="evenodd" d="M16.875 2.8125C16.875 1.881 16.119 1.125 15.1875 1.125H2.8125C1.881 1.125 1.125 1.881 1.125 2.8125V15.1875C1.125 16.119 1.881 16.875 2.8125 16.875H15.1875C16.119 16.875 16.875 16.119 16.875 15.1875V2.8125ZM15.75 5.625V15.1875C15.75 15.3367 15.6907 15.4798 15.5852 15.5852C15.4798 15.6907 15.3367 15.75 15.1875 15.75H2.8125C2.66332 15.75 2.52024 15.6907 2.41475 15.5852C2.30926 15.4798 2.25 15.3367 2.25 15.1875V5.625H15.75ZM12.9375 8.4375C12.9375 7.506 12.1815 6.75 11.25 6.75H6.75C5.8185 6.75 5.0625 7.506 5.0625 8.4375V12.9375C5.0625 13.869 5.8185 14.625 6.75 14.625H11.25C12.1815 14.625 12.9375 13.869 12.9375 12.9375V8.4375ZM7.3125 7.875H6.75C6.60082 7.875 6.45774 7.93426 6.35225 8.03975C6.24676 8.14524 6.1875 8.28832 6.1875 8.4375V12.9375C6.1875 13.0867 6.24676 13.2298 6.35225 13.3352C6.45774 13.4407 6.60082 13.5 6.75 13.5H11.25C11.3992 13.5 11.5423 13.4407 11.6477 13.3352C11.7532 13.2298 11.8125 13.0867 11.8125 12.9375V8.4375C11.8125 8.28832 11.7532 8.14524 11.6477 8.03975C11.5423 7.93426 11.3992 7.875 11.25 7.875H10.6875V10.125C10.6875 10.4234 10.569 10.7095 10.358 10.9205C10.147 11.1315 9.86087 11.25 9.5625 11.25H8.4375C8.13913 11.25 7.85298 11.1315 7.642 10.9205C7.43103 10.7095 7.3125 10.4234 7.3125 10.125V7.875ZM9.5625 7.875H8.4375V10.125H9.5625V7.875ZM15.75 4.5H2.25V2.8125C2.25 2.66332 2.30926 2.52024 2.41475 2.41475C2.52024 2.30926 2.66332 2.25 2.8125 2.25H15.1875C15.3367 2.25 15.4798 2.30926 15.5852 2.41475C15.6907 2.52024 15.75 2.66332 15.75 2.8125V4.5ZM10.6875 2.8125C10.5383 2.8125 10.3952 2.87176 10.2898 2.97725C10.1843 3.08274 10.125 3.22582 10.125 3.375C10.125 3.52418 10.1843 3.66726 10.2898 3.77275C10.3952 3.87824 10.5383 3.9375 10.6875 3.9375C10.8367 3.9375 10.9798 3.87824 11.0852 3.77275C11.1907 3.66726 11.25 3.52418 11.25 3.375C11.25 3.22582 11.1907 3.08274 11.0852 2.97725C10.9798 2.87176 10.8367 2.8125 10.6875 2.8125ZM12.375 2.8125C12.2258 2.8125 12.0827 2.87176 11.9773 2.97725C11.8718 3.08274 11.8125 3.22582 11.8125 3.375C11.8125 3.52418 11.8718 3.66726 11.9773 3.77275C12.0827 3.87824 12.2258 3.9375 12.375 3.9375C12.5242 3.9375 12.6673 3.87824 12.7727 3.77275C12.8782 3.66726 12.9375 3.52418 12.9375 3.375C12.9375 3.22582 12.8782 3.08274 12.7727 2.97725C12.6673 2.87176 12.5242 2.8125 12.375 2.8125ZM14.0625 2.8125C13.9133 2.8125 13.7702 2.87176 13.6648 2.97725C13.5593 3.08274 13.5 3.22582 13.5 3.375C13.5 3.52418 13.5593 3.66726 13.6648 3.77275C13.7702 3.87824 13.9133 3.9375 14.0625 3.9375C14.2117 3.9375 14.3548 3.87824 14.4602 3.77275C14.5657 3.66726 14.625 3.52418 14.625 3.375C14.625 3.22582 14.5657 3.08274 14.4602 2.97725C14.3548 2.87176 14.2117 2.8125 14.0625 2.8125Z" fill="#5C3EF4"/>
</svg>
