<svg width="18" height="18" viewBox="0 0 18 18" fill="none" xmlns="http://www.w3.org/2000/svg">
<path fill-rule="evenodd" clip-rule="evenodd" d="M12.75 12.75C13.3713 12.75 13.875 13.2537 13.875 13.875C13.875 14.4963 13.3713 15 12.75 15H10.5C9.87868 15 9.375 14.4963 9.375 13.875C9.375 13.2537 9.87868 12.75 10.5 12.75H12.75ZM10.5 13.5C10.2929 13.5 10.125 13.6679 10.125 13.875C10.125 14.0821 10.2929 14.25 10.5 14.25H12.75C12.9571 14.25 13.125 14.0821 13.125 13.875C13.125 13.6679 12.9571 13.5 12.75 13.5H10.5Z" fill="#5C3EF4"/>
<path d="M6.375 13.5C6.58211 13.5 6.75 13.6679 6.75 13.875C6.75 14.0821 6.58211 14.25 6.375 14.25H4.125C3.91789 14.25 3.75 14.0821 3.75 13.875C3.75 13.6679 3.91789 13.5 4.125 13.5H6.375Z" fill="#5C3EF4"/>
<path fill-rule="evenodd" clip-rule="evenodd" d="M12.9031 3.00806C13.6596 3.08475 14.25 3.72326 14.25 4.5V10.5L14.2419 10.6531C14.1704 11.3592 13.6092 11.9204 12.9031 11.9919L12.75 12H5.25L5.09692 11.9919C4.39076 11.9204 3.82965 11.3592 3.75806 10.6531L3.75 10.5V4.5C3.75 3.72326 4.34042 3.08475 5.09692 3.00806L5.25 3H12.75L12.9031 3.00806ZM5.25 4.125C5.04289 4.125 4.875 4.29289 4.875 4.5V10.5C4.875 10.7071 5.04289 10.875 5.25 10.875H12.75C12.9571 10.875 13.125 10.7071 13.125 10.5V4.5C13.125 4.29289 12.9571 4.125 12.75 4.125H5.25Z" fill="#5C3EF4"/>
<path fill-rule="evenodd" clip-rule="evenodd" d="M14.4031 1.50806C15.1596 1.58475 15.75 2.22326 15.75 3V15L15.7419 15.1531C15.6704 15.8592 15.1092 16.4204 14.4031 16.4919L14.25 16.5H3.75L3.59692 16.4919C2.89076 16.4204 2.32965 15.8592 2.25806 15.1531L2.25 15V3C2.25 2.22326 2.84042 1.58475 3.59692 1.50806L3.75 1.5H14.25L14.4031 1.50806ZM3.75 2.625C3.54289 2.625 3.375 2.79289 3.375 3V15C3.375 15.2071 3.54289 15.375 3.75 15.375H14.25C14.4571 15.375 14.625 15.2071 14.625 15V3C14.625 2.79289 14.4571 2.625 14.25 2.625H3.75Z" fill="#5C3EF4"/>
</svg>
