<svg width="18" height="18" viewBox="0 0 18 18" fill="none" xmlns="http://www.w3.org/2000/svg">
<path d="M13.5 8.4375V2.6875C13.5 2.13522 13.0523 1.6875 12.5 1.6875H5.5C4.94772 1.6875 4.5 2.13522 4.5 2.6875V8.4375H2.6875C2.13522 8.4375 1.6875 8.88522 1.6875 9.4375V15.3125C1.6875 15.8648 2.13522 16.3125 2.6875 16.3125H15.3125C15.8648 16.3125 16.3125 15.8648 16.3125 15.3125V9.4375C16.3125 8.88522 15.8648 8.4375 15.3125 8.4375H13.5ZM5.625 2.8125H12.375V8.4375H5.625V2.8125ZM15.1875 15.1875H2.8125V9.5625H15.1875V15.1875Z" fill="#5C3EF4"/>
<path d="M6.75 5.0625H11.25V5.625H6.75V5.0625ZM6.75 6.1875H11.25V6.75H6.75V6.1875ZM10.6875 12.375H7.3125V11.8125H6.75V12.9375H11.25V11.8125H10.6875V12.375Z" fill="#5C3EF4"/>
</svg>
