<svg width="18" height="18" viewBox="0 0 18 18" fill="none" xmlns="http://www.w3.org/2000/svg">
<path d="M6.625 15C6.625 15.5523 7.07272 16 7.625 16H16C16.5523 16 17 15.5523 17 15V10.4667C17 9.91438 16.5523 9.46667 16 9.46667H7.625C7.07272 9.46667 6.625 9.91438 6.625 10.4667V15ZM7.5625 15.0667V12.2667H16.0625V15.0667H7.5625ZM16.0625 10.4V11.3333H7.5625V10.4H16.0625ZM11.375 3C11.375 2.44771 10.9273 2 10.375 2H2C1.44772 2 1 2.44772 1 3V7.53333C1 8.08562 1.44772 8.53333 2 8.53333H10.375C10.9273 8.53333 11.375 8.08562 11.375 7.53333V3ZM10.4375 3.78646C10.0386 3.64561 9.72205 3.33049 9.58057 2.93333H10.4375V3.78646ZM8.60962 7.6H3.76538C3.57849 6.68708 2.85449 5.9663 1.9375 5.78024V4.75297C2.85449 4.56703 3.57849 3.84625 3.76538 2.93333H8.60974C8.79651 3.84625 9.52051 4.56703 10.4375 4.75309V5.78036C9.52051 5.9663 8.79651 6.68708 8.60962 7.6ZM2.79443 2.93333C2.65295 3.33049 2.33643 3.64561 1.9375 3.78646V2.93333H2.79443ZM1.9375 6.74688C2.33643 6.88773 2.65295 7.20285 2.79443 7.6H1.9375V6.74688ZM9.58057 7.6C9.72205 7.20285 10.0386 6.88773 10.4375 6.74688V7.6H9.58057Z" fill="#5C3EF4"/>
<path d="M6.1472 3.46514C5.0952 3.46514 4.23945 4.29326 4.23945 5.31128C4.23945 6.32929 5.0952 7.15741 6.1472 7.15741C7.19919 7.15741 8.05494 6.32929 8.05494 5.31128C8.05494 4.29326 7.19919 3.46514 6.1472 3.46514ZM6.1472 6.23434C5.6212 6.23434 5.19332 5.82028 5.19332 5.31128C5.19332 4.80227 5.6212 4.38821 6.1472 4.38821C6.67319 4.38821 7.10107 4.80227 7.10107 5.31128C7.10107 5.82028 6.67319 6.23434 6.1472 6.23434ZM12.3792 13.1574H15.2408V14.0804H12.3792V13.1574ZM3.25378 12.6923V11.9688L3.86162 12.5571L4.53617 11.9044L2.76815 10.1934L1 11.9044L1.67454 12.5571L2.2999 11.9518V12.6923C2.2999 13.9647 3.36966 15 4.68459 15V14.0769C3.89565 14.0769 3.25378 13.4558 3.25378 12.6923ZM14.7639 5.30779V6.04817L14.1385 5.44288L13.464 6.09564L15.232 7.80656L17 6.09564L16.3256 5.44288L15.7177 6.0311V5.30767C15.7177 4.03521 14.648 3 13.333 3V3.92307C14.122 3.92319 14.7639 4.54422 14.7639 5.30779Z" fill="#5C3EF4"/>
</svg>
