<svg width="18" height="18" viewBox="0 0 18 18" fill="none" xmlns="http://www.w3.org/2000/svg">
<path d="M10.6875 16.875H3.9375C3.48995 16.875 3.06072 16.6972 2.74426 16.3807C2.42779 16.0643 2.25 15.6351 2.25 15.1875V14.625C2.25 14.4758 2.30926 14.3327 2.41475 14.2273C2.52024 14.1218 2.66332 14.0625 2.8125 14.0625C2.96168 14.0625 3.10476 14.1218 3.21025 14.2273C3.31574 14.3327 3.375 14.4758 3.375 14.625V15.1875C3.375 15.3367 3.43426 15.4798 3.53975 15.5852C3.64524 15.6907 3.78832 15.75 3.9375 15.75H10.6875C10.8367 15.75 10.9798 15.6907 11.0852 15.5852C11.1907 15.4798 11.25 15.3367 11.25 15.1875V3.375C11.25 3.22582 11.1907 3.08274 11.0852 2.97725C10.9798 2.87176 10.8367 2.8125 10.6875 2.8125H3.9375C3.78832 2.8125 3.64524 2.87176 3.53975 2.97725C3.43426 3.08274 3.375 3.22582 3.375 3.375V11.25C3.375 11.3992 3.31574 11.5423 3.21025 11.6477C3.10476 11.7532 2.96168 11.8125 2.8125 11.8125C2.66332 11.8125 2.52024 11.7532 2.41475 11.6477C2.30926 11.5423 2.25 11.3992 2.25 11.25V3.375C2.25 2.92745 2.42779 2.49822 2.74426 2.18176C3.06072 1.86529 3.48995 1.6875 3.9375 1.6875H10.6875C11.1351 1.6875 11.5643 1.86529 11.8807 2.18176C12.1972 2.49822 12.375 2.92745 12.375 3.375V15.1875C12.375 15.6351 12.1972 16.0643 11.8807 16.3807C11.5643 16.6972 11.1351 16.875 10.6875 16.875Z" fill="#5C3EF4"/>
<path d="M14.0625 15.75H11.8125C11.6633 15.75 11.5202 15.6907 11.4148 15.5852C11.3093 15.4798 11.25 15.3367 11.25 15.1875V4.5C11.25 4.35082 11.3093 4.20774 11.4148 4.10225C11.5202 3.99676 11.6633 3.9375 11.8125 3.9375H14.0625C14.5101 3.9375 14.9393 4.11529 15.2557 4.43176C15.5722 4.74822 15.75 5.17745 15.75 5.625V14.0625C15.75 14.5101 15.5722 14.9393 15.2557 15.2557C14.9393 15.5722 14.5101 15.75 14.0625 15.75ZM12.375 14.625H14.0625C14.2117 14.625 14.3548 14.5657 14.4602 14.4602C14.5657 14.3548 14.625 14.2117 14.625 14.0625V5.625C14.625 5.47582 14.5657 5.33274 14.4602 5.22725C14.3548 5.12176 14.2117 5.0625 14.0625 5.0625H12.375V14.625Z" fill="#5C3EF4"/>
<path d="M5.625 8.4375H4.5V9.5625H5.625V8.4375Z" fill="#5C3EF4"/>
<path d="M7.875 8.4375H6.75V9.5625H7.875V8.4375Z" fill="#5C3EF4"/>
<path d="M5.625 10.6875H4.5V11.8125H5.625V10.6875Z" fill="#5C3EF4"/>
<path d="M7.875 10.6875H6.75V11.8125H7.875V10.6875Z" fill="#5C3EF4"/>
<path d="M5.625 12.9375H4.5V14.0625H5.625V12.9375Z" fill="#5C3EF4"/>
<path d="M8.4375 12.9375H6.75V14.0625H8.4375V12.9375Z" fill="#5C3EF4"/>
<path d="M10.125 8.4375H9V9.5625H10.125V8.4375Z" fill="#5C3EF4"/>
<path d="M10.125 10.6875H9V11.8125H10.125V10.6875Z" fill="#5C3EF4"/>
<path d="M10.125 12.375H9V14.0625H10.125V12.375Z" fill="#5C3EF4"/>
<path d="M9.5625 7.3125H5.0625C4.91332 7.3125 4.77024 7.25324 4.66475 7.14775C4.55926 7.04226 4.5 6.89918 4.5 6.75V4.5C4.5 4.35082 4.55926 4.20774 4.66475 4.10225C4.77024 3.99676 4.91332 3.9375 5.0625 3.9375H9.5625C9.71168 3.9375 9.85476 3.99676 9.96025 4.10225C10.0657 4.20774 10.125 4.35082 10.125 4.5V6.75C10.125 6.89918 10.0657 7.04226 9.96025 7.14775C9.85476 7.25324 9.71168 7.3125 9.5625 7.3125ZM5.625 6.1875H9V5.0625H5.625V6.1875Z" fill="#5C3EF4"/>
<path d="M2.8125 13.5C3.12316 13.5 3.375 13.2482 3.375 12.9375C3.375 12.6268 3.12316 12.375 2.8125 12.375C2.50184 12.375 2.25 12.6268 2.25 12.9375C2.25 13.2482 2.50184 13.5 2.8125 13.5Z" fill="#5C3EF4"/>
</svg>
