<svg width="18" height="18" viewBox="0 0 18 18" fill="none" xmlns="http://www.w3.org/2000/svg">
<path d="M14.1566 5.75375C13.9845 5.49557 14.0542 5.14569 14.3124 4.97357L15.9999 3.84857C16.2575 3.67532 16.6074 3.74619 16.7801 4.00438C16.9522 4.26257 16.8825 4.61244 16.6243 4.78457L14.9368 5.90957C14.8411 5.97369 14.7326 6.00407 14.6251 6.00407C14.4435 6.00407 14.2651 5.91632 14.1566 5.75375ZM14.9368 10.5986C14.678 10.4253 14.3293 10.4956 14.1566 10.7544C13.9845 11.0126 14.0542 11.3624 14.3124 11.5346L15.9999 12.6596C16.0955 12.7237 16.2041 12.7541 16.3115 12.7541C16.4932 12.7541 16.6715 12.6663 16.7801 12.5038C16.9522 12.2456 16.8825 11.8957 16.6243 11.7236L14.9368 10.5986ZM14.6246 8.81657H16.3121C16.6226 8.81657 16.8746 8.56457 16.8746 8.25407C16.8746 7.94357 16.6226 7.69157 16.3121 7.69157H14.6246C14.3141 7.69157 14.0621 7.94357 14.0621 8.25407C14.0621 8.56457 14.3141 8.81657 14.6246 8.81657ZM12.9371 5.24525V11.2623C12.9371 11.7967 12.6924 12.2878 12.2655 12.6095C11.9679 12.8339 11.6146 12.9509 11.2541 12.9509C11.0983 12.9509 10.9408 12.929 10.7855 12.8846L6.74902 11.7314V13.0319C6.74902 13.8071 6.1179 14.4382 5.34277 14.4382C4.56765 14.4382 3.93652 13.8071 3.93652 13.0319V11.066H3.37402C2.13315 11.066 1.12402 10.0569 1.12402 8.816V7.691C1.12402 6.45013 2.13315 5.441 3.37402 5.441H4.42027L10.7855 3.62244C11.3002 3.4745 11.8391 3.57632 12.2649 3.8975C12.6918 4.21925 12.9365 4.71032 12.9365 5.24469L12.9371 5.24525ZM3.93709 6.56657H3.37459C2.75415 6.56657 2.24959 7.07113 2.24959 7.69157V8.81657C2.24959 9.437 2.75415 9.94157 3.37459 9.94157H3.93709V6.56657ZM5.62459 11.4103L5.06209 11.2494V13.0319C5.06209 13.1872 5.18809 13.3132 5.34334 13.3132C5.49859 13.3132 5.62459 13.1872 5.62459 13.0319V11.4103ZM11.8121 5.24525C11.8121 5.0675 11.7305 4.90382 11.5882 4.79638C11.4465 4.68894 11.267 4.65519 11.0955 4.70469L5.06209 6.42819V10.0794L11.0955 11.8029C11.267 11.8518 11.4465 11.8181 11.5882 11.7112C11.7305 11.6038 11.8121 11.4401 11.8121 11.2623V5.24525Z" fill="#5C3EF4"/>
</svg>
