<svg width="18" height="18" viewBox="0 0 18 18" fill="none" xmlns="http://www.w3.org/2000/svg">
<path d="M12.9375 0H5.0625C4.61495 0 4.18572 0.17779 3.86926 0.494257C3.55279 0.810725 3.375 1.23995 3.375 1.6875V12.375C3.375 12.5242 3.43426 12.6673 3.53975 12.7727C3.64524 12.8782 3.78832 12.9375 3.9375 12.9375C4.08668 12.9375 4.22976 12.8782 4.33525 12.7727C4.44074 12.6673 4.5 12.5242 4.5 12.375V2.8125H13.5V13.5H3.9375C3.78832 13.5 3.64524 13.5593 3.53975 13.6648C3.43426 13.7702 3.375 13.9133 3.375 14.0625V16.3125C3.375 16.7601 3.55279 17.1893 3.86926 17.5057C4.18572 17.8222 4.61495 18 5.0625 18H12.9375C13.3851 18 13.8143 17.8222 14.1307 17.5057C14.4472 17.1893 14.625 16.7601 14.625 16.3125V1.6875C14.625 1.23995 14.4472 0.810725 14.1307 0.494257C13.8143 0.17779 13.3851 0 12.9375 0ZM4.5 1.6875C4.5 1.53832 4.55926 1.39524 4.66475 1.28975C4.77024 1.18426 4.91332 1.125 5.0625 1.125H12.9375C13.0867 1.125 13.2298 1.18426 13.3352 1.28975C13.4407 1.39524 13.5 1.53832 13.5 1.6875H4.5ZM12.9375 16.875H5.0625C4.91332 16.875 4.77024 16.8157 4.66475 16.7102C4.55926 16.6048 4.5 16.4617 4.5 16.3125V14.625H13.5V16.3125C13.5 16.4617 13.4407 16.6048 13.3352 16.7102C13.2298 16.8157 13.0867 16.875 12.9375 16.875Z" fill="#5C3EF4"/>
<path d="M8.99988 16.3153C9.3121 16.3153 9.56519 16.0622 9.56519 15.75C9.56519 15.4378 9.3121 15.1847 8.99988 15.1847C8.68767 15.1847 8.43457 15.4378 8.43457 15.75C8.43457 16.0622 8.68767 16.3153 8.99988 16.3153Z" fill="#5C3EF4"/>
<path d="M7.875 3.375H5.625C5.47582 3.375 5.33274 3.43426 5.22725 3.53975C5.12176 3.64524 5.0625 3.78832 5.0625 3.9375V6.1875C5.0625 6.33668 5.12176 6.47976 5.22725 6.58525C5.33274 6.69074 5.47582 6.75 5.625 6.75H7.875C8.02418 6.75 8.16726 6.69074 8.27275 6.58525C8.37824 6.47976 8.4375 6.33668 8.4375 6.1875V3.9375C8.4375 3.78832 8.37824 3.64524 8.27275 3.53975C8.16726 3.43426 8.02418 3.375 7.875 3.375ZM7.3125 5.625H6.1875V4.5H7.3125V5.625ZM9.5625 12.375C9.5625 12.5242 9.62176 12.6673 9.72725 12.7727C9.83274 12.8782 9.97582 12.9375 10.125 12.9375H12.375C12.5242 12.9375 12.6673 12.8782 12.7727 12.7727C12.8782 12.6673 12.9375 12.5242 12.9375 12.375V10.125C12.9375 9.97582 12.8782 9.83274 12.7727 9.72725C12.6673 9.62176 12.5242 9.5625 12.375 9.5625H10.125C9.97582 9.5625 9.83274 9.62176 9.72725 9.72725C9.62176 9.83274 9.5625 9.97582 9.5625 10.125V12.375ZM10.6875 10.6875H11.8125V11.8125H10.6875V10.6875ZM12.9375 6.1875V3.9375C12.9375 3.78832 12.8782 3.64524 12.7727 3.53975C12.6673 3.43426 12.5242 3.375 12.375 3.375H10.125C9.97582 3.375 9.83274 3.43426 9.72725 3.53975C9.62176 3.64524 9.5625 3.78832 9.5625 3.9375V6.1875C9.5625 6.33668 9.62176 6.47976 9.72725 6.58525C9.83274 6.69074 9.97582 6.75 10.125 6.75H12.375C12.5242 6.75 12.6673 6.69074 12.7727 6.58525C12.8782 6.47976 12.9375 6.33668 12.9375 6.1875ZM11.8125 5.625H10.6875V4.5H11.8125V5.625ZM5.0625 12.375C5.0625 12.5242 5.12176 12.6673 5.22725 12.7727C5.33274 12.8782 5.47582 12.9375 5.625 12.9375H7.875C8.02418 12.9375 8.16726 12.8782 8.27275 12.7727C8.37824 12.6673 8.4375 12.5242 8.4375 12.375V10.125C8.4375 9.97582 8.37824 9.83274 8.27275 9.72725C8.16726 9.62176 8.02418 9.5625 7.875 9.5625H5.625C5.47582 9.5625 5.33274 9.62176 5.22725 9.72725C5.12176 9.83274 5.0625 9.97582 5.0625 10.125V12.375ZM6.1875 10.6875H7.3125V11.8125H6.1875V10.6875ZM6.1875 7.3125C6.03832 7.3125 5.89524 7.37176 5.78975 7.47725C5.68426 7.58274 5.625 7.72582 5.625 7.875C5.625 8.02418 5.68426 8.16726 5.78975 8.27275C5.89524 8.37824 6.03832 8.4375 6.1875 8.4375H7.3125C7.46168 8.4375 7.60476 8.37824 7.71025 8.27275C7.81574 8.16726 7.875 8.02418 7.875 7.875C7.875 7.72582 7.81574 7.58274 7.71025 7.47725C7.60476 7.37176 7.46168 7.3125 7.3125 7.3125H6.1875ZM10.6875 7.875C10.5383 7.875 10.3952 7.93426 10.2898 8.03975C10.1843 8.14524 10.125 8.28832 10.125 8.4375C10.125 8.58668 10.1843 8.72976 10.2898 8.83525C10.3952 8.94074 10.5383 9 10.6875 9H11.8125C11.9617 9 12.1048 8.94074 12.2102 8.83525C12.3157 8.72976 12.375 8.58668 12.375 8.4375C12.375 8.28832 12.3157 8.14524 12.2102 8.03975C12.1048 7.93426 11.9617 7.875 11.8125 7.875H10.6875ZM9 7.33106C8.92656 7.32667 8.85301 7.33759 8.78402 7.36313C8.71502 7.38866 8.65208 7.42826 8.5992 7.4794C8.54631 7.53054 8.50463 7.59211 8.47679 7.66021C8.44896 7.72831 8.43558 7.80146 8.4375 7.875V8.4375C8.4375 8.58668 8.49676 8.72976 8.60225 8.83525C8.70774 8.94074 8.85082 9 9 9C9.14918 9 9.29226 8.94074 9.39775 8.83525C9.50324 8.72976 9.5625 8.58668 9.5625 8.4375V7.875C9.56408 7.80155 9.55047 7.72856 9.52252 7.66062C9.49457 7.59267 9.45287 7.53124 9.40006 7.48017C9.34725 7.42909 9.28445 7.38949 9.2156 7.36383C9.14676 7.33817 9.07336 7.32702 9 7.33106Z" fill="#5C3EF4"/>
</svg>
