<svg width="18" height="18" viewBox="0 0 18 18" fill="none" xmlns="http://www.w3.org/2000/svg">
<path d="M13.2 17H4.8C4.32261 17 3.86477 16.8025 3.52721 16.4508C3.18964 16.0992 3 15.6223 3 15.125V3.875C3 3.37772 3.18964 2.90081 3.52721 2.54917C3.86477 2.19754 4.32261 2 4.8 2H6C6.15913 2 6.31174 2.06585 6.42426 2.18306C6.53679 2.30027 6.6 2.45924 6.6 2.625C6.6 2.79076 6.53679 2.94973 6.42426 3.06694C6.31174 3.18415 6.15913 3.25 6 3.25H4.8C4.64087 3.25 4.48826 3.31585 4.37574 3.43306C4.26321 3.55027 4.2 3.70924 4.2 3.875V15.125C4.2 15.2908 4.26321 15.4497 4.37574 15.5669C4.48826 15.6842 4.64087 15.75 4.8 15.75H13.2C13.3591 15.75 13.5117 15.6842 13.6243 15.5669C13.7368 15.4497 13.8 15.2908 13.8 15.125V3.875C13.8 3.70924 13.7368 3.55027 13.6243 3.43306C13.5117 3.31585 13.3591 3.25 13.2 3.25H12C11.8409 3.25 11.6883 3.18415 11.5757 3.06694C11.4632 2.94973 11.4 2.79076 11.4 2.625C11.4 2.45924 11.4632 2.30027 11.5757 2.18306C11.6883 2.06585 11.8409 2 12 2H13.2C13.6774 2 14.1352 2.19754 14.4728 2.54917C14.8104 2.90081 15 3.37772 15 3.875V15.125C15 15.6223 14.8104 16.0992 14.4728 16.4508C14.1352 16.8025 13.6774 17 13.2 17Z" fill="#5C3EF4"/>
<path d="M11.6667 4.6H6.33333C5.97971 4.6 5.64057 4.47357 5.39052 4.24853C5.14048 4.02348 5 3.71826 5 3.4V2.2C5 1.88174 5.14048 1.57652 5.39052 1.35147C5.64057 1.12643 5.97971 1 6.33333 1H11.6667C12.0203 1 12.3594 1.12643 12.6095 1.35147C12.8595 1.57652 13 1.88174 13 2.2V3.4C13 3.71826 12.8595 4.02348 12.6095 4.24853C12.3594 4.47357 12.0203 4.6 11.6667 4.6ZM6.33333 2.2V3.4H11.6667V2.2H6.33333ZM11.6667 13H6.33333C6.15652 13 5.98695 12.9368 5.86193 12.8243C5.7369 12.7117 5.66667 12.5591 5.66667 12.4C5.66667 12.2409 5.7369 12.0883 5.86193 11.9757C5.98695 11.8632 6.15652 11.8 6.33333 11.8H11.6667C11.8435 11.8 12.013 11.8632 12.1381 11.9757C12.2631 12.0883 12.3333 12.2409 12.3333 12.4C12.3333 12.5591 12.2631 12.7117 12.1381 12.8243C12.013 12.9368 11.8435 13 11.6667 13ZM11.6667 10.6H6.33333C6.15652 10.6 5.98695 10.5368 5.86193 10.4243C5.7369 10.3117 5.66667 10.1591 5.66667 10C5.66667 9.84087 5.7369 9.68826 5.86193 9.57574C5.98695 9.46321 6.15652 9.4 6.33333 9.4H11.6667C11.8435 9.4 12.013 9.46321 12.1381 9.57574C12.2631 9.68826 12.3333 9.84087 12.3333 10C12.3333 10.1591 12.2631 10.3117 12.1381 10.4243C12.013 10.5368 11.8435 10.6 11.6667 10.6ZM8.33333 8.2H6.33333C6.15652 8.2 5.98695 8.13679 5.86193 8.02426C5.7369 7.91174 5.66667 7.75913 5.66667 7.6C5.66667 7.44087 5.7369 7.28826 5.86193 7.17574C5.98695 7.06321 6.15652 7 6.33333 7H8.33333C8.51014 7 8.67971 7.06321 8.80474 7.17574C8.92976 7.28826 9 7.44087 9 7.6C9 7.75913 8.92976 7.91174 8.80474 8.02426C8.67971 8.13679 8.51014 8.2 8.33333 8.2Z" fill="#5C3EF4"/>
</svg>
