<svg width="18" height="18" viewBox="0 0 18 18" fill="none" xmlns="http://www.w3.org/2000/svg">
<path fill-rule="evenodd" clip-rule="evenodd" d="M9.75 3H9V2.625C9 2.0025 8.4975 1.5 7.875 1.5C7.2525 1.5 6.75 2.0025 6.75 2.625V3H6V2.625C6 2.0025 5.4975 1.5 4.875 1.5C4.2525 1.5 3.75 2.0025 3.75 2.625V3H3.01125C2.17875 3 1.5 3.675 1.5 4.51125V13.1138C1.5 13.9463 2.175 14.625 3.01125 14.625H4.5V15.39C4.5 16.0013 4.995 16.5 5.61 16.5H15.39C16.0013 16.5 16.5 16.005 16.5 15.39V10.86C16.5 10.2487 16.005 9.75 15.39 9.75H14.25V4.51125C14.25 4.11 14.0925 3.7275 13.8075 3.4425C13.5225 3.1575 13.14 3 12.7388 3H12V2.625C12 2.0025 11.4975 1.5 10.875 1.5C10.2525 1.5 9.75 2.0025 9.75 2.625V3ZM5.25 15V15.39C5.25 15.5887 5.41125 15.75 5.61 15.75H6C5.9925 15.3375 5.6625 15.0075 5.25 15ZM8.38125 10.5H6.75C6.7425 11.325 6.075 11.9925 5.25 12V14.25C6.075 14.2575 6.7425 14.925 6.75 15.75H8.38125C7.61625 15.1313 7.125 14.1862 7.125 13.125C7.125 12.0638 7.61625 11.1187 8.38125 10.5ZM10.5 10.5C11.9475 10.5 13.125 11.6775 13.125 13.125C13.125 14.5725 11.9475 15.75 10.5 15.75C9.0525 15.75 7.875 14.5725 7.875 13.125C7.875 11.6775 9.0525 10.5 10.5 10.5ZM14.25 10.5H12.6188C13.3838 11.1187 13.875 12.0638 13.875 13.125C13.875 14.1862 13.3838 15.1313 12.6188 15.75H14.25C14.2575 14.925 14.925 14.2575 15.75 14.25V12C14.925 11.9925 14.2575 11.325 14.25 10.5ZM15.75 15C15.3375 15.0075 15.0075 15.3375 15 15.75H15.39C15.5887 15.75 15.75 15.5887 15.75 15.39V15ZM10.125 11.6437C9.945 11.6812 9.78 11.7675 9.64875 11.8988C9.4725 12.075 9.375 12.3112 9.375 12.5625C9.375 12.8138 9.4725 13.05 9.64875 13.2262C9.825 13.4025 10.0612 13.5 10.3125 13.5H10.6875C10.7362 13.5 10.785 13.5188 10.8188 13.5563C10.8525 13.59 10.875 13.6388 10.875 13.6875C10.875 13.7362 10.8562 13.785 10.8188 13.8187C10.785 13.8525 10.7362 13.875 10.6875 13.875H9.75C9.54375 13.875 9.375 14.0437 9.375 14.25C9.375 14.4563 9.54375 14.625 9.75 14.625H10.125V15C10.125 15.2063 10.2937 15.375 10.5 15.375C10.7063 15.375 10.875 15.2063 10.875 15V14.6063C11.055 14.5688 11.22 14.4825 11.3512 14.3512C11.5275 14.175 11.625 13.9388 11.625 13.6875C11.625 13.4362 11.5275 13.2 11.3512 13.0238C11.175 12.8475 10.9388 12.75 10.6875 12.75H10.3125C10.2638 12.75 10.215 12.7312 10.1812 12.6937C10.1475 12.6562 10.125 12.6112 10.125 12.5625C10.125 12.5138 10.1438 12.465 10.1812 12.4313C10.215 12.3975 10.2638 12.375 10.3125 12.375H11.25C11.4563 12.375 11.625 12.2063 11.625 12C11.625 11.7937 11.4563 11.625 11.25 11.625H10.875V11.25C10.875 11.0437 10.7063 10.875 10.5 10.875C10.2937 10.875 10.125 11.0437 10.125 11.25V11.6437ZM12.75 9.75H13.5V6.375H2.25V13.1138C2.25 13.5338 2.59125 13.875 3.01125 13.875H4.5V13.125H3.375C3.16875 13.125 3 12.9563 3 12.75V7.5C3 7.29375 3.16875 7.125 3.375 7.125H12.375C12.5813 7.125 12.75 7.29375 12.75 7.5V9.75ZM4.56 10.5H3.75V12.375H4.5V10.86C4.5 10.7325 4.5225 10.6125 4.56 10.5ZM6 10.5H5.61C5.41125 10.5 5.25 10.6613 5.25 10.86V11.25C5.6625 11.2425 5.9925 10.9125 6 10.5ZM15 10.5C15.0075 10.9125 15.3375 11.2425 15.75 11.25V10.86C15.75 10.6613 15.5887 10.5 15.39 10.5H15ZM9.75 7.875V9.75H12V7.875H9.75ZM6.75 9.75H9V7.875H6.75V9.75ZM3.75 9.75H6V7.875H3.75V9.75ZM3.75 3.75H3.01125C2.59125 3.75 2.25 4.09125 2.25 4.51125V5.625H13.5V4.51125C13.5 4.30875 13.4213 4.1175 13.2787 3.975C13.1362 3.8325 12.9412 3.75375 12.7425 3.75375H12.0037V4.12875C12.0037 4.75125 11.5013 5.25375 10.8787 5.25375C10.2563 5.25375 9.75375 4.75125 9.75375 4.12875V3.75375H9.00375V4.12875C9.00375 4.75125 8.50125 5.25375 7.87875 5.25375C7.25625 5.25375 6.75375 4.75125 6.75375 4.12875V3.75375H6.00375V4.12875C6.00375 4.75125 5.50125 5.25375 4.87875 5.25375C4.25625 5.25375 3.75375 4.75125 3.75375 4.12875V3.75375L3.75 3.75ZM7.875 4.5C7.66875 4.5 7.5 4.33125 7.5 4.125V2.625C7.5 2.41875 7.66875 2.25 7.875 2.25C8.08125 2.25 8.25 2.41875 8.25 2.625V4.125C8.25 4.33125 8.08125 4.5 7.875 4.5ZM10.875 4.5C10.6687 4.5 10.5 4.33125 10.5 4.125V2.625C10.5 2.41875 10.6687 2.25 10.875 2.25C11.0813 2.25 11.25 2.41875 11.25 2.625V4.125C11.25 4.33125 11.0813 4.5 10.875 4.5ZM4.875 4.5C4.66875 4.5 4.5 4.33125 4.5 4.125V2.625C4.5 2.41875 4.66875 2.25 4.875 2.25C5.08125 2.25 5.25 2.41875 5.25 2.625V4.125C5.25 4.33125 5.08125 4.5 4.875 4.5Z" fill="#5C3EF4"/>
</svg>
