<svg width="18" height="18" viewBox="0 0 18 18" fill="none" xmlns="http://www.w3.org/2000/svg">
<g clip-path="url(#clip0_188_2141)">
<path d="M14.9766 0.5625H3.02344C2.37076 0.5625 1.74481 0.821777 1.28329 1.28329C0.821777 1.74481 0.5625 2.37076 0.5625 3.02344V11.7879C0.5625 12.4406 0.821777 13.0665 1.28329 13.528C1.74481 13.9896 2.37076 14.2488 3.02344 14.2488H8.29688V16.0312H5.85703C5.67055 16.0312 5.49171 16.1053 5.35985 16.2372C5.22799 16.3691 5.15391 16.5479 5.15391 16.7344C5.15391 16.9209 5.22799 17.0997 5.35985 17.2316C5.49171 17.3634 5.67055 17.4375 5.85703 17.4375H12.143C12.3294 17.4375 12.5083 17.3634 12.6402 17.2316C12.772 17.0997 12.8461 16.9209 12.8461 16.7344C12.8461 16.5479 12.772 16.3691 12.6402 16.2372C12.5083 16.1053 12.3294 16.0312 12.143 16.0312H9.70312V14.2488H14.9766C15.6292 14.2488 16.2552 13.9896 16.7167 13.528C17.1782 13.0665 17.4375 12.4406 17.4375 11.7879V3.02344C17.4375 2.37076 17.1782 1.74481 16.7167 1.28329C16.2552 0.821777 15.6292 0.5625 14.9766 0.5625ZM3.02344 1.96875H14.9766C15.2563 1.96875 15.5245 2.07987 15.7223 2.27766C15.9201 2.47545 16.0312 2.74372 16.0312 3.02344V10.2691H1.96875V3.02344C1.96875 2.74372 2.07987 2.47545 2.27766 2.27766C2.47545 2.07987 2.74372 1.96875 3.02344 1.96875ZM14.9766 12.8426H3.02344C2.74372 12.8426 2.47545 12.7315 2.27766 12.5337C2.07987 12.3359 1.96875 12.0676 1.96875 11.7879V11.6754H16.0312V11.7879C16.0312 12.0676 15.9201 12.3359 15.7223 12.5337C15.5245 12.7315 15.2563 12.8426 14.9766 12.8426Z" fill="#5C3EF4"/>
</g>
<defs>
<clipPath id="clip0_188_2141">
<rect width="18" height="18" fill="white"/>
</clipPath>
</defs>
</svg>
