<svg width="18" height="18" viewBox="0 0 18 18" fill="none" xmlns="http://www.w3.org/2000/svg">
<path fill-rule="evenodd" clip-rule="evenodd" d="M15.8149 3.9375C16.2452 3.9375 16.6578 4.1043 16.9621 4.40099C17.2664 4.69767 17.4375 5.09995 17.4375 5.51953C17.4375 5.93911 17.2664 6.34139 16.9621 6.63808C16.7355 6.85901 16.4488 7.00721 16.1394 7.06881V8.32825L16.6471 12.2926C16.6756 12.5141 16.6557 12.7393 16.5882 12.9526C16.5206 13.1659 16.4069 13.3625 16.2554 13.5298C16.1039 13.6972 15.9178 13.8317 15.7091 13.9235C15.5003 14.0152 15.2738 14.0625 15.0448 14.0625C14.6513 14.0621 14.2712 13.9216 13.9762 13.6676C13.6852 13.417 13.4972 13.0727 13.445 12.698L9 10.8947L4.55371 12.6974C4.4971 13.106 4.27951 13.4768 3.94523 13.73C3.60702 13.9862 3.17858 14.1009 2.75364 14.0489C2.32873 13.9969 1.94209 13.7828 1.6793 13.4532C1.41654 13.1234 1.29892 12.7051 1.35225 12.2907L1.86058 8.32825V7.06881C1.55123 7.00721 1.26447 6.85901 1.03787 6.63808C0.733574 6.34139 0.5625 5.93911 0.5625 5.51953C0.5625 5.09995 0.733574 4.69767 1.03787 4.40099C1.34217 4.1043 1.75476 3.9375 2.1851 3.9375H15.8149ZM3.15295 8.44567L2.63892 12.4496C2.63378 12.493 2.63842 12.5369 2.65159 12.5787C2.66476 12.6205 2.68635 12.6593 2.71561 12.6924C2.75601 12.7371 2.80893 12.7696 2.86773 12.7858C2.92656 12.8019 2.98934 12.8009 3.04773 12.7833C3.10598 12.7657 3.15813 12.7324 3.19732 12.6869C3.23655 12.6412 3.26136 12.5853 3.26894 12.5262L3.88312 7.73438H14.1162L14.7304 12.5262C14.7432 12.6055 14.787 12.6769 14.8528 12.7252C14.9186 12.7735 15.0011 12.795 15.0828 12.7851C15.1646 12.7752 15.2397 12.7347 15.2914 12.672C15.3429 12.6094 15.3674 12.5295 15.3598 12.4496L14.8413 8.36719V7.10156H3.15865L3.15295 8.44567ZM4.74005 11.2519L7.31085 10.2094L4.99485 9.27006L4.74005 11.2519ZM10.6891 10.21L13.2587 11.2519L13.0039 9.27129L10.6891 10.21ZM9 9.52467L10.2955 9H7.70573L9 9.52467ZM2.1851 5.20312C2.09903 5.20312 2.01651 5.23648 1.95565 5.29582C1.89479 5.35516 1.86058 5.43562 1.86058 5.51953C1.86058 5.60345 1.89479 5.6839 1.95565 5.74324C2.01651 5.80258 2.09903 5.83594 2.1851 5.83594H15.8149C15.901 5.83594 15.9835 5.80258 16.0443 5.74324C16.1052 5.6839 16.1394 5.60345 16.1394 5.51953C16.1394 5.43562 16.1052 5.35516 16.0443 5.29582C15.9835 5.23648 15.901 5.20312 15.8149 5.20312H2.1851Z" fill="#5C3EF4"/>
</svg>
